<svg width="240" height="240" viewBox="0 0 240 240" fill="none" xmlns="http://www.w3.org/2000/svg">
<path d="M39 180.8C28.8 165.8 23.4 147.2 23.4 128C23.4 74.6 66.6 31.4 120 31.4C173.4 31.4 216.6 74.6 216.6 128C216.6 147.2 210.6 165.8 201 180.8H228C235.8 164.6 240 147.2 240 128C240 62 186 8 120 8C54 8 0 62 0 128C0 147.2 4.2 164.6 12 180.8H39Z" fill="#4A4AF4"/>
<path d="M121.8 71C104.4 71 84 79.4 73.2 87.8L83.4 108.8C92.4 101 106.2 93.8 119.4 93.8C131.4 93.8 138.6 98 138.6 105.8C138.6 111.2 134.4 114.2 125.4 115.4C93.6 118.4 69 128 69 152.6C69 171.8 82.8 183.8 105.6 183.8C120.6 183.8 133.2 175.4 139.2 164V180.8H168V111.2C167.4 82.4 147.6 71 121.8 71ZM113.4 161.6C104.4 161.6 99 157.4 99 151.4C99 137.6 115.8 134.6 136.8 134.6C136.8 148.4 127.8 161.6 113.4 161.6Z" fill="#101820"/>
</svg>
