<svg width="104" height="104" viewBox="0 0 104 104" fill="none" xmlns="http://www.w3.org/2000/svg">
<path d="M30.334 56.3333H47.6673V73.6666H30.334V56.3333ZM56.334 56.3333H73.6673V73.6666H56.334V56.3333Z" fill="#67E8F9"/>
<path d="M82.3333 13H21.6667C16.9 13 13 16.9 13 21.6667V82.3333C13 87.1 16.9 91 21.6667 91H82.3333C87.1 91 91 87.1 91 82.3333V21.6667C91 16.9 87.1 13 82.3333 13ZM82.3333 82.3333H21.6667V21.6667H82.3333V82.3333Z" fill="#67E8F9"/>
<path d="M30.334 30.3333H47.6673V47.6666H30.334V30.3333ZM56.334 30.3333H73.6673V47.6666H56.334V30.3333Z" fill="#67E8F9"/>
</svg>
