<svg width="104" height="104" viewBox="0 0 104 104" fill="none" xmlns="http://www.w3.org/2000/svg">
<g clip-path="url(#clip0_467_29980)">
<path d="M86.6667 77.9999C91.4333 77.9999 95.29 74.0999 95.29 69.3333L95.3333 25.9999C95.3333 21.2333 91.4333 17.3333 86.6667 17.3333H17.3333C12.5667 17.3333 8.66667 21.2333 8.66667 25.9999V69.3333C8.66667 74.0999 12.5667 77.9999 17.3333 77.9999H4.33333C1.95 77.9999 0 79.9499 0 82.3333C0 84.7166 1.95 86.6666 4.33333 86.6666H99.6667C102.05 86.6666 104 84.7166 104 82.3333C104 79.9499 102.05 77.9999 99.6667 77.9999H86.6667ZM21.6667 25.9999H82.3333C84.7167 25.9999 86.6667 27.9499 86.6667 30.3333V64.9999C86.6667 67.3833 84.7167 69.3333 82.3333 69.3333H21.6667C19.2833 69.3333 17.3333 67.3833 17.3333 64.9999V30.3333C17.3333 27.9499 19.2833 25.9999 21.6667 25.9999Z" fill="#67E8F9"/>
</g>
<defs>
<clipPath id="clip0_467_29980">
<rect width="104" height="104" fill="white"/>
</clipPath>
</defs>
</svg>
