<svg width="128" height="128" viewBox="0 0 128 128" fill="none" xmlns="http://www.w3.org/2000/svg">
<path d="M1.4082 1.40796H126.592V126.593H1.4082V1.40796Z" fill="#67E8F9"/>
<path d="M68.8713 58.8166V97.8512C68.8713 103.894 67.1564 108.549 63.7265 111.815C60.3512 115.082 55.7781 116.715 50.0073 116.715C43.9643 116.715 39.119 115 35.4714 111.57C31.8238 108.141 30 103.268 30 96.9529H43.8826C43.8826 99.3483 44.3726 101.172 45.3525 102.424C46.3325 103.622 47.7479 104.221 49.599 104.221C51.2866 104.221 52.5932 103.676 53.5187 102.588C54.4443 101.499 54.907 99.92 54.907 97.8512V58.8166H68.8713Z" fill="#021117"/>
<path d="M95.8931 116.715C91.7011 116.715 87.9446 116.035 84.6237 114.674C81.3028 113.313 78.6351 111.298 76.6208 108.631C74.6609 105.963 73.6265 102.751 73.5176 98.9945H88.3802C88.5979 101.118 89.3329 102.751 90.585 103.894C91.8372 104.983 93.4704 105.527 95.4848 105.527C97.5536 105.527 99.1868 105.065 100.385 104.139C101.582 103.159 102.181 101.825 102.181 100.138C102.181 98.7223 101.691 97.5518 100.711 96.6263C99.7857 95.7008 98.6152 94.9386 97.1997 94.3397C95.8387 93.7409 93.8788 93.0603 91.32 92.2982C87.618 91.1549 84.5965 90.0116 82.2555 88.8684C79.9145 87.7251 77.9002 86.0374 76.2125 83.8053C74.5248 81.5732 73.6809 78.6606 73.6809 75.0674C73.6809 69.7322 75.6136 65.5674 79.479 62.5731C83.3443 59.5244 88.3802 58 94.5865 58C100.902 58 105.992 59.5244 109.857 62.5731C113.723 65.5674 115.791 69.7594 116.064 75.1491H100.956C100.847 73.2981 100.167 71.8554 98.9146 70.821C97.6624 69.7322 96.0564 69.1877 94.0965 69.1877C92.4088 69.1877 91.0478 69.6505 90.0134 70.576C88.979 71.4471 88.4618 72.7264 88.4618 74.4141C88.4618 76.2651 89.3329 77.7078 91.075 78.7422C92.8171 79.7766 95.5392 80.8927 99.2412 82.0904C102.943 83.3425 105.938 84.5402 108.224 85.6835C110.565 86.8268 112.579 88.4873 114.267 90.6649C115.955 92.8426 116.799 95.6463 116.799 99.0761C116.799 102.343 115.955 105.31 114.267 107.977C112.634 110.645 110.238 112.768 107.081 114.347C103.923 115.926 100.194 116.715 95.8931 116.715Z" fill="#021117"/>
</svg>
