<svg width="104" height="104" viewBox="0 0 104 104" fill="none" xmlns="http://www.w3.org/2000/svg">
<path d="M67.166 4.33337H32.4993C29.6262 4.33337 26.8707 5.47474 24.839 7.50638C22.8074 9.53803 21.666 12.2935 21.666 15.1667V88.8334C21.666 91.7066 22.8074 94.4621 24.839 96.4937C26.8707 98.5253 29.6262 99.6667 32.4993 99.6667H67.166C70.0392 99.6667 72.7947 98.5253 74.8263 96.4937C76.858 94.4621 77.9994 91.7066 77.9994 88.8334V15.1667C77.9994 12.2935 76.858 9.53803 74.8263 7.50638C72.7947 5.47474 70.0392 4.33337 67.166 4.33337ZM49.8327 95.3334C46.236 95.3334 43.3327 92.43 43.3327 88.8334C43.3327 85.2367 46.236 82.3334 49.8327 82.3334C53.4294 82.3334 56.3327 85.2367 56.3327 88.8334C56.3327 92.43 53.4294 95.3334 49.8327 95.3334ZM69.3327 78H30.3327V17.3334H69.3327V78Z" fill="#67E8F9"/>
</svg>
