<svg width="104" height="104" viewBox="0 0 104 104" fill="none" xmlns="http://www.w3.org/2000/svg">
<path d="M51.9994 95.3334C28.1227 95.3334 8.66602 75.8768 8.66602 52.0001C8.66602 28.1234 28.1227 8.66675 51.9994 8.66675C75.876 8.66675 95.3327 26.1734 95.3327 47.6667C95.3327 62.0101 83.676 73.6668 69.3327 73.6668H61.6627C60.4493 73.6668 59.496 74.6201 59.496 75.8334C59.496 76.3534 59.7127 76.8301 60.0593 77.2634C61.836 79.3001 62.8327 81.8568 62.8327 84.5001C62.8327 87.3733 61.6913 90.1288 59.6597 92.1604C57.628 94.1921 54.8725 95.3334 51.9994 95.3334ZM51.9994 17.3334C32.8894 17.3334 17.3327 32.8901 17.3327 52.0001C17.3327 71.1101 32.8894 86.6668 51.9994 86.6668C53.2127 86.6668 54.166 85.7134 54.166 84.5001C54.1525 83.9381 53.9372 83.3997 53.5593 82.9834C51.7827 80.9901 50.8293 78.4334 50.8293 75.8334C50.8293 72.9602 51.9707 70.2047 54.0024 68.1731C56.034 66.1414 58.7895 65.0001 61.6627 65.0001H69.3327C78.9094 65.0001 86.666 57.2434 86.666 47.6667C86.666 30.9401 71.1094 17.3334 51.9994 17.3334Z" fill="#67E8F9"/>
<path d="M28.166 56.3333C31.7559 56.3333 34.666 53.4231 34.666 49.8333C34.666 46.2434 31.7559 43.3333 28.166 43.3333C24.5762 43.3333 21.666 46.2434 21.666 49.8333C21.666 53.4231 24.5762 56.3333 28.166 56.3333Z" fill="#67E8F9"/>
<path d="M41.166 39C44.7559 39 47.666 36.0899 47.666 32.5C47.666 28.9101 44.7559 26 41.166 26C37.5762 26 34.666 28.9101 34.666 32.5C34.666 36.0899 37.5762 39 41.166 39Z" fill="#67E8F9"/>
<path d="M62.834 39C66.4238 39 69.334 36.0899 69.334 32.5C69.334 28.9101 66.4238 26 62.834 26C59.2441 26 56.334 28.9101 56.334 32.5C56.334 36.0899 59.2441 39 62.834 39Z" fill="#67E8F9"/>
<path d="M75.834 56.3333C79.4238 56.3333 82.334 53.4231 82.334 49.8333C82.334 46.2434 79.4238 43.3333 75.834 43.3333C72.2441 43.3333 69.334 46.2434 69.334 49.8333C69.334 53.4231 72.2441 56.3333 75.834 56.3333Z" fill="#67E8F9"/>
</svg>
